<svg xmlns="http://www.w3.org/2000/svg" xmlns:xlink="http://www.w3.org/1999/xlink" viewBox="0,0,256,256" width="128px" height="128px" fill-rule="nonzero"><defs><linearGradient x1="26.873" y1="36" x2="26.873" y2="42.5" gradientUnits="userSpaceOnUse" id="color-1"><stop offset="0" stop-color="#6c69bd"></stop><stop offset="1" stop-color="#ff2222"></stop></linearGradient><linearGradient x1="37.676" y1="29.5" x2="37.676" y2="35.5" gradientUnits="userSpaceOnUse" id="color-2"><stop offset="0" stop-color="#6c69bd"></stop><stop offset="1" stop-color="#ff2222"></stop></linearGradient><linearGradient x1="35.125" y1="29.5" x2="35.125" y2="41.335" gradientUnits="userSpaceOnUse" id="color-3"><stop offset="0" stop-color="#6c69bd"></stop><stop offset="1" stop-color="#ff2222"></stop></linearGradient><linearGradient x1="37.676" y1="29.5" x2="37.676" y2="35.5" gradientUnits="userSpaceOnUse" id="color-4"><stop offset="0" stop-color="#6c69bd"></stop><stop offset="1" stop-color="#ff2222"></stop></linearGradient><linearGradient x1="31.125" y1="36.513" x2="31.125" y2="45.843" gradientUnits="userSpaceOnUse" id="color-5"><stop offset="0" stop-color="#6c69bd"></stop><stop offset="1" stop-color="#ff2222"></stop></linearGradient><linearGradient x1="34" y1="16.762" x2="34" y2="33.32" gradientUnits="userSpaceOnUse" id="color-6"><stop offset="0" stop-color="#6c69bd"></stop><stop offset="1" stop-color="#ff2222"></stop></linearGradient><linearGradient x1="32" y1="9.083" x2="32" y2="54.676" gradientUnits="userSpaceOnUse" id="color-7"><stop offset="0" stop-color="#88aae6"></stop><stop offset="1" stop-color="#857dc9"></stop></linearGradient></defs><g fill="none" fill-rule="nonzero" stroke="none" stroke-width="1" stroke-linecap="butt" stroke-linejoin="miter" stroke-miterlimit="10" stroke-dasharray="" stroke-dashoffset="0" font-family="none" font-weight="none" font-size="none" text-anchor="none" style="mix-blend-mode: normal"><g transform="scale(4,4)"><path d="M27.75,42.5c1.922,0 3.743,-0.418 5.392,-1.154c-0.546,-3.039 -3.197,-5.346 -6.392,-5.346c-2.853,0 -5.271,1.841 -6.145,4.397c2.063,1.325 4.511,2.103 7.145,2.103z" fill="url(#color-1)"></path><path d="M30.775,33.318c1.708,1.362 3.869,2.182 6.225,2.182c3.032,0 5.743,-1.354 7.577,-3.485c-1.655,-1.556 -3.877,-2.515 -6.327,-2.515c-3.076,0 -5.794,1.508 -7.475,3.818z" fill="url(#color-2)"></path><path d="M38.25,29.5c-4.336,0 -7.965,2.988 -8.967,7.014c1.984,0.843 3.46,2.645 3.856,4.82c4.434,-1.979 7.576,-6.317 7.827,-11.428c-0.858,-0.263 -1.77,-0.406 -2.716,-0.406z" fill="url(#color-3)"></path><path d="M30.775,33.318c1.708,1.362 3.869,2.182 6.225,2.182c3.032,0 5.743,-1.354 7.577,-3.485c-1.655,-1.556 -3.877,-2.515 -6.327,-2.515c-3.076,0 -5.794,1.508 -7.475,3.818z" fill="url(#color-4)"></path><g fill="url(#color-5)"><path d="M29.284,36.513c-0.179,0.717 -0.284,1.464 -0.284,2.237c0,2.85 1.291,5.396 3.317,7.093c0.588,-0.978 0.933,-2.119 0.933,-3.343c0,-2.691 -1.635,-5 -3.966,-5.987z"></path></g><g fill="url(#color-6)"><path d="M30.778,33.32c1.683,-2.31 4.402,-3.82 7.472,-3.82c0.943,0 1.853,0.144 2.711,0.407c0.011,-0.22 0.039,-0.435 0.039,-0.657c0,-5.775 -3.702,-10.674 -8.857,-12.488c-3.066,1.708 -5.143,4.979 -5.143,8.738c0,3.169 1.478,5.988 3.778,7.82z"></path></g><path d="M50,55h-36c-2.757,0 -5,-2.243 -5,-5v-36c0,-2.757 2.243,-5 5,-5h36c2.757,0 5,2.243 5,5v36c0,2.757 -2.243,5 -5,5zM14,11c-1.654,0 -3,1.346 -3,3v36c0,1.654 1.346,3 3,3h36c1.654,0 3,-1.346 3,-3v-36c0,-1.654 -1.346,-3 -3,-3zM45.904,31.955c1.356,-1.87 2.096,-4.128 2.096,-6.455c0,-6.065 -4.935,-11 -11,-11c-1.773,0 -3.443,0.431 -4.928,1.18c-1.395,-0.444 -2.844,-0.68 -4.322,-0.68c-7.857,0 -14.25,6.393 -14.25,14.25c0,4.625 2.21,8.897 5.945,11.576c-0.124,0.539 -0.195,1.098 -0.195,1.674c0,4.136 3.364,7.5 7.5,7.5c2.331,0 4.417,-1.069 5.793,-2.743c1.68,1.126 3.668,1.743 5.707,1.743c5.652,0 10.25,-4.598 10.25,-10.25c0,-2.608 -0.987,-4.984 -2.596,-6.795zM46,25.5c0,1.823 -0.559,3.594 -1.58,5.084c-1.719,-1.302 -3.852,-2.084 -6.17,-2.084c-2.983,0 -5.712,1.278 -7.605,3.372c-1.691,-1.682 -2.645,-3.954 -2.645,-6.372c0,-4.963 4.037,-9 9,-9c4.963,0 9,4.037 9,9zM15.5,29.25c0,-6.755 5.495,-12.25 12.25,-12.25c0.702,0 1.396,0.059 2.08,0.176c-2.34,2.019 -3.83,4.998 -3.83,8.324c0,3.056 1.256,5.914 3.456,7.988c-0.33,0.552 -0.612,1.138 -0.836,1.757c-0.599,-0.154 -1.223,-0.245 -1.87,-0.245c-2.819,0 -5.277,1.565 -6.558,3.869c-2.949,-2.315 -4.692,-5.823 -4.692,-9.619zM26.75,48c-3.032,0 -5.5,-2.468 -5.5,-5.5c0,-3.032 2.468,-5.5 5.5,-5.5c3.032,0 5.5,2.468 5.5,5.5c0,3.032 -2.468,5.5 -5.5,5.5zM38.25,47c-1.667,0 -3.293,-0.51 -4.658,-1.444c0.419,-0.935 0.658,-1.967 0.658,-3.056c0,-2.78 -1.524,-5.207 -3.777,-6.502c1.151,-3.273 4.244,-5.498 7.777,-5.498c4.549,0 8.25,3.701 8.25,8.25c0,4.549 -3.701,8.25 -8.25,8.25z" fill="url(#color-7)"></path></g></g></svg>